<svg width="300" height="300" viewBox="0 0 300 300" fill="none" xmlns="http://www.w3.org/2000/svg">
<rect width="300" height="300" fill="#F2F2F2"/>
<g opacity="0.15" clip-path="url(#clip0)">
<path fill-rule="evenodd" clip-rule="evenodd" d="M135.561 81.0105C134.578 79.3385 132.97 78.1192 131.085 77.6179C129.2 77.1166 127.192 77.374 125.498 78.334L79.8467 104.512C78.1608 105.487 76.9314 107.083 76.426 108.952C75.9206 110.821 76.1801 112.813 77.1481 114.494C78.1304 116.166 79.7405 117.385 81.6264 117.883C83.5122 118.382 85.5203 118.119 87.2114 117.153L132.741 91.0778C133.599 90.607 134.354 89.9713 134.962 89.2078C135.569 88.4443 136.018 87.5684 136.28 86.6311C136.543 85.6938 136.614 84.714 136.491 83.7491C136.368 82.784 136.051 81.8531 135.561 81.0105Z" fill="#354546"/>
<path fill-rule="evenodd" clip-rule="evenodd" d="M152.958 125.606L136.242 96.5497L136.051 96.6717L90.6418 122.975H90.5203L107.236 152.032C99.1545 163.65 95.2598 177.686 96.1947 191.824C97.1295 205.961 102.838 219.358 112.379 229.803C121.92 240.247 134.722 247.117 148.677 249.279C162.631 251.44 176.902 248.765 189.137 241.693C201.373 234.622 210.84 223.577 215.98 210.379C221.12 197.183 221.624 182.622 217.409 169.098C213.194 155.576 204.513 143.898 192.797 135.991C181.08 128.084 167.028 124.421 152.958 125.606Z" fill="#354546"/>
<path fill-rule="evenodd" clip-rule="evenodd" d="M152.958 125.606L136.242 96.5497L136.051 96.6717L90.6418 122.975H90.5203L107.236 152.032C99.1545 163.65 95.2598 177.686 96.1947 191.824C97.1295 205.961 102.838 219.358 112.379 229.803C121.92 240.247 134.722 247.117 148.677 249.279C162.631 251.44 176.902 248.765 189.137 241.693C201.373 234.622 210.84 223.577 215.98 210.379C221.12 197.183 221.624 182.622 217.409 169.098C213.194 155.576 204.513 143.898 192.797 135.991C181.08 128.084 167.028 124.421 152.958 125.606Z" fill="white"/>
<path fill-rule="evenodd" clip-rule="evenodd" d="M135.561 81.0105C134.578 79.3385 132.97 78.1192 131.085 77.6179C129.2 77.1166 127.192 77.374 125.498 78.334L79.8467 104.512C78.1608 105.487 76.9314 107.083 76.426 108.952C75.9206 110.821 76.1801 112.813 77.1481 114.494C78.1304 116.166 79.7405 117.385 81.6264 117.883C83.5122 118.382 85.5203 118.119 87.2114 117.153L132.741 91.0778C133.599 90.607 134.354 89.9713 134.962 89.2078C135.569 88.4443 136.018 87.5684 136.28 86.6311C136.543 85.6938 136.614 84.714 136.491 83.7491C136.368 82.784 136.051 81.8531 135.561 81.0105Z" fill="white"/>
<path d="M156.277 259C197.545 259 231 253.9 231 247.61C231 241.32 197.545 236.221 156.277 236.221C115.008 236.221 81.5535 241.32 81.5535 247.61C81.5535 253.9 115.008 259 156.277 259Z" fill="#354546"/>
<path fill-rule="evenodd" clip-rule="evenodd" d="M157.092 118.401L141.935 92.1316C143.51 89.3028 144.112 86.0338 143.65 82.8281C143.188 79.6224 141.686 76.658 139.376 74.3915C137.066 72.125 134.076 70.6822 130.867 70.2853C127.658 69.8885 124.408 70.5596 121.617 72.1953L76.3907 98.3954C73.5935 100.005 71.4013 102.49 70.151 105.468C68.9007 108.446 68.6615 111.754 69.4702 114.882C70.2789 118.01 72.0908 120.785 74.6273 122.782C77.1637 124.778 80.2845 125.885 83.5098 125.932L98.6487 152.201C90.7806 165.393 87.5057 180.827 89.3375 196.084C91.1693 211.342 98.0042 225.559 108.77 236.506C119.537 247.453 133.625 254.511 148.828 256.573C164.029 258.636 179.485 255.587 192.77 247.903C206.056 240.219 216.421 228.336 222.238 214.117C228.055 199.898 228.997 184.146 224.916 169.333C220.835 154.52 211.962 141.483 199.687 132.265C187.412 123.048 172.431 118.171 157.092 118.401ZM77.4127 114.931C76.4507 113.25 76.1877 111.258 76.6803 109.384C77.173 107.511 78.3818 105.907 80.0455 104.919L125.393 78.6152C126.231 78.1267 127.157 77.8087 128.117 77.6795C129.078 77.5503 130.055 77.6125 130.991 77.8623C131.928 78.1122 132.806 78.5449 133.575 79.1357C134.345 79.7263 134.99 80.4634 135.474 81.3046C136.442 82.9921 136.703 84.9948 136.2 86.8745C135.696 88.7541 134.47 90.3574 132.789 91.3335L87.4245 117.533C85.742 118.504 83.7442 118.768 81.8681 118.267C79.9918 117.767 78.39 116.542 77.4127 114.862V114.931ZM189.171 241.645C176.968 248.701 162.729 251.382 148.802 249.245C134.875 247.108 122.09 240.28 112.556 229.889C103.021 219.498 97.3062 206.162 96.3525 192.081C95.3988 177.999 99.2635 164.013 107.309 152.427L90.629 123.485H90.7502L136.063 97.2849L136.254 97.1634L152.934 126.105C166.949 124.95 180.94 128.604 192.608 136.466C204.275 144.329 212.928 155.932 217.142 169.371C221.357 182.81 220.884 197.284 215.801 210.418C210.718 223.552 201.327 234.564 189.171 241.645Z" fill="#354546"/>
<path fill-rule="evenodd" clip-rule="evenodd" d="M227.046 179.875L224.608 177.859C216.782 171.066 206.769 167.361 196.43 167.431C184.865 167.536 173.957 172.002 163.36 176.364L159.834 177.911C156.895 177.146 154.014 176.318 151.19 175.426C143.152 172.958 135.217 170.212 127.196 167.623C121.646 165.885 113.85 163.33 108.059 163.73C102.268 164.13 96.148 165.867 92.7598 171.255C90.7078 175.058 89.5599 179.287 89.4061 183.611V183.715C88.5806 200.811 94.0575 217.612 104.788 230.9C115.518 244.188 130.748 253.03 147.559 255.731C164.371 258.432 181.583 254.803 195.899 245.54C210.214 236.276 220.628 222.028 225.144 205.526C227.052 198.194 227.764 190.599 227.253 183.037L227.046 179.875Z" fill="#354546"/>
<path fill-rule="evenodd" clip-rule="evenodd" d="M102.542 175.896C100.686 192.077 138.721 185.843 148.506 182.078C134.398 177.921 123.283 174.12 114.321 172.113C110.051 171.154 103.172 170.568 102.542 175.896Z" fill="#FF5758"/>
<path fill-rule="evenodd" clip-rule="evenodd" d="M157.659 186.831C134.533 195.795 96.9319 199.096 96.3585 180.316C95.3099 188.904 96.066 197.617 98.5783 205.896C101.091 214.175 105.304 221.838 110.948 228.396C116.593 234.953 123.544 240.261 131.358 243.978C139.172 247.696 147.675 249.741 156.325 249.984C164.975 250.227 173.58 248.661 181.59 245.388C189.6 242.115 196.838 237.206 202.842 230.976C208.845 224.745 213.483 217.33 216.455 209.205C219.428 201.08 220.672 192.424 220.107 183.791C199.118 166.592 178.336 178.805 157.659 186.831Z" fill="#FF7979"/>
<path fill-rule="evenodd" clip-rule="evenodd" d="M90.6427 123.085H90.5203L107.355 152.262C104.495 156.369 102.147 160.81 100.362 165.486C101.334 165.152 102.327 164.884 103.334 164.682C104.614 164.406 105.91 164.219 107.215 164.122C108.936 158.306 111.574 152.802 115.03 147.819L98.1947 118.729L90.6427 123.085Z" fill="#BDC3C7"/>
<path fill-rule="evenodd" clip-rule="evenodd" d="M196.282 233.143C169.138 248.132 127.614 234.982 112.105 208.161C109.186 203.124 107.07 197.663 105.836 191.975C104.29 191.427 102.819 190.687 101.459 189.771C99.9079 188.761 98.6302 187.383 97.7395 185.761C96.8488 184.139 96.3727 182.322 96.3533 180.472C94.9619 191.921 96.7913 203.53 101.636 213.996C106.481 224.464 114.15 233.375 123.783 239.731C133.416 246.088 144.63 249.637 156.17 249.981C167.709 250.325 179.115 247.45 189.11 241.678C189.11 241.678 202.639 235.52 212.469 217.841C212.451 217.841 204.879 228.389 196.282 233.143Z" fill="#FF5758"/>
<path fill-rule="evenodd" clip-rule="evenodd" d="M133.267 86.0016L87.6288 112.018C85.9321 112.981 83.9184 113.24 82.0284 112.739C80.1385 112.238 78.5264 111.019 77.545 109.347C77.2505 108.85 77.0219 108.317 76.8646 107.762C76.2014 109.167 76.009 110.744 76.3154 112.265C76.6218 113.785 77.4111 115.169 78.5686 116.216C79.726 117.263 81.1913 117.918 82.7516 118.087C84.3119 118.255 85.8859 117.928 87.245 117.152L132.866 91.1359C134.298 90.3153 135.409 89.0443 136.023 87.5263C136.636 86.0083 136.717 84.3309 136.251 82.7624C135.625 84.1243 134.581 85.2575 133.267 86.0016Z" fill="#BDC3C7"/>
<path fill-rule="evenodd" clip-rule="evenodd" d="M76.1362 82.9418C75.4517 82.4414 74.6443 82.1704 73.8164 82.1631C72.9885 82.1559 72.1772 82.4127 71.4851 82.901C70.7931 83.3893 70.2514 84.0873 69.9287 84.9065C69.606 85.7257 69.5167 86.6293 69.6722 87.5031C69.8277 88.3768 70.2209 89.1813 70.8021 89.8149C71.3833 90.4484 72.1264 90.8824 72.9373 91.0621C73.7482 91.2417 74.5904 91.1588 75.3575 90.824C76.1245 90.4891 76.7819 89.9173 77.2463 89.1809C77.8681 88.1951 78.1004 86.9843 77.8924 85.8146C77.6842 84.6449 77.0526 83.6117 76.1362 82.9418Z" fill="#FAC090"/>
<path fill-rule="evenodd" clip-rule="evenodd" d="M102.436 42.7214C101.751 42.2566 100.943 42.0055 100.116 42.0001C99.2881 41.9946 98.4775 42.235 97.7861 42.6908C97.0948 43.1467 96.5537 43.7975 96.2313 44.5612C95.9088 45.3249 95.8195 46.1673 95.9744 46.9818C96.1294 47.7964 96.5218 48.5467 97.102 49.138C97.6822 49.7293 98.4243 50.1351 99.2345 50.3041C100.045 50.4732 100.887 50.3979 101.654 50.0878C102.422 49.7777 103.08 49.2467 103.547 48.5618C104.17 47.6389 104.403 46.5063 104.195 45.4118C103.987 44.3172 103.354 43.3499 102.436 42.7214Z" fill="#3E85B9"/>
<path fill-rule="evenodd" clip-rule="evenodd" d="M107.219 64.5253C107.603 63.0672 106.199 62.4304 105.347 63.5533C104.735 64.4 103.875 65.0343 102.886 65.3677C101.897 65.7011 100.83 65.7171 99.8318 65.4135C98.3778 65.0448 97.7427 66.4358 98.8625 67.3072C99.7036 67.92 100.334 68.7798 100.666 69.7677C100.999 70.7555 101.017 71.8225 100.718 72.821C100.35 74.279 101.737 74.9158 102.589 73.8097C103.199 72.96 104.059 72.3224 105.047 71.9859C106.036 71.6494 107.105 71.6308 108.105 71.9327C109.559 72.3182 110.194 70.9104 109.091 70.0558C108.243 69.4441 107.607 68.5824 107.272 67.591C106.936 66.5995 106.918 65.5278 107.219 64.5253Z" fill="#3E85B9"/>
<path fill-rule="evenodd" clip-rule="evenodd" d="M129.598 45.2616L128.303 44.9348L128.653 43.6617C128.701 43.4945 128.714 43.3197 128.692 43.1475C128.67 42.9752 128.613 42.8089 128.526 42.6584C128.438 42.5079 128.32 42.3761 128.18 42.2707C128.04 42.1653 127.879 42.0885 127.709 42.0446C127.542 42.0004 127.368 41.9889 127.197 42.0108C127.026 42.0327 126.861 42.0876 126.712 42.1722C126.562 42.2569 126.431 42.3698 126.326 42.5043C126.221 42.6389 126.144 42.7925 126.1 42.9564L125.75 44.2294L124.456 43.9026C124.289 43.8583 124.115 43.8468 123.944 43.8687C123.773 43.8906 123.608 43.9455 123.459 44.0302C123.309 44.1149 123.178 44.2277 123.073 44.3623C122.968 44.4968 122.891 44.6505 122.847 44.8143C122.755 45.1474 122.802 45.5024 122.975 45.802C123.149 46.1017 123.436 46.3217 123.774 46.4142L125.085 46.7411L124.735 48.0141C124.668 48.1853 124.638 48.3686 124.648 48.5519C124.657 48.7352 124.706 48.9145 124.791 49.0781C124.875 49.2417 124.994 49.386 125.139 49.5015C125.284 49.617 125.452 49.7012 125.632 49.7485C125.813 49.7959 126.001 49.8054 126.185 49.7764C126.37 49.7474 126.546 49.6806 126.702 49.5803C126.858 49.48 126.991 49.3484 127.092 49.1941C127.193 49.0399 127.26 48.8664 127.289 48.685L127.621 47.412L128.933 47.7389C129.1 47.7831 129.273 47.7946 129.445 47.7727C129.615 47.7508 129.78 47.6959 129.93 47.6112C130.079 47.5266 130.21 47.4137 130.315 47.2792C130.42 47.1446 130.497 46.991 130.542 46.8271C130.613 46.4972 130.556 46.1529 130.381 45.8627C130.206 45.5726 129.926 45.358 129.598 45.2616Z" fill="#FAC090"/>
<path fill-rule="evenodd" clip-rule="evenodd" d="M82.4502 63.5801C81.6817 63.5801 80.9304 63.8086 80.2915 64.2367C79.6525 64.6649 79.1545 65.2734 78.8604 65.9855C78.5662 66.6974 78.4893 67.4808 78.6392 68.2367C78.7892 68.9925 79.1593 69.6868 79.7026 70.2317C80.2461 70.7766 80.9384 71.1477 81.6921 71.2981C82.4459 71.4484 83.2271 71.3712 83.9371 71.0763C84.6472 70.7814 85.254 70.282 85.681 69.6412C86.1079 69.0005 86.3358 68.2472 86.3358 67.4765C86.3358 66.4431 85.9264 65.4521 85.1977 64.7213C84.469 63.9906 83.4807 63.5801 82.4502 63.5801ZM82.4502 69.5594C82.0394 69.5594 81.6378 69.4372 81.2962 69.2084C80.9546 68.9795 80.6884 68.6542 80.5312 68.2736C80.374 67.893 80.3328 67.4742 80.413 67.0702C80.4932 66.6661 80.691 66.295 80.9814 66.0037C81.2719 65.7124 81.642 65.514 82.0449 65.4337C82.4479 65.3533 82.8655 65.3945 83.2451 65.5522C83.6246 65.7098 83.949 65.9768 84.1772 66.3193C84.4055 66.6619 84.5273 67.0646 84.5273 67.4765C84.5273 68.0289 84.3085 68.5587 83.9189 68.9494C83.5294 69.34 83.001 69.5594 82.4502 69.5594Z" fill="#FF6E55"/>
<path fill-rule="evenodd" clip-rule="evenodd" d="M130.83 130.623C131.24 129.018 129.701 128.31 128.76 129.553C128.087 130.488 127.143 131.188 126.057 131.556C124.972 131.924 123.8 131.942 122.704 131.607C121.096 131.193 120.412 132.746 121.627 133.695C122.557 134.371 123.254 135.323 123.62 136.42C123.985 137.515 124 138.7 123.662 139.805C123.252 141.41 124.791 142.118 125.732 140.875C126.409 139.926 127.365 139.217 128.465 138.849C129.565 138.48 130.751 138.47 131.857 138.821C133.464 139.235 134.166 137.682 132.934 136.733C131.993 136.065 131.284 135.116 130.907 134.02C130.529 132.924 130.502 131.736 130.83 130.623Z" fill="#FF6E55"/>
<path fill-rule="evenodd" clip-rule="evenodd" d="M161.379 148.114H159.852V146.601C159.852 146.207 159.697 145.829 159.421 145.549C159.145 145.269 158.77 145.11 158.378 145.105C157.984 145.11 157.607 145.269 157.328 145.548C157.05 145.828 156.891 146.206 156.887 146.601V148.114H155.377C154.984 148.114 154.608 148.269 154.329 148.546C154.049 148.823 153.89 149.199 153.886 149.592C153.89 149.987 154.049 150.365 154.327 150.644C154.607 150.924 154.983 151.083 155.377 151.087H156.887V152.601C156.891 152.996 157.05 153.374 157.328 153.654C157.607 153.933 157.984 154.092 158.378 154.097C158.77 154.092 159.145 153.932 159.421 153.653C159.697 153.373 159.852 152.995 159.852 152.601V151.087H161.379C161.771 151.083 162.146 150.923 162.422 150.643C162.698 150.363 162.852 149.986 162.852 149.592C162.852 149.2 162.697 148.824 162.421 148.547C162.145 148.27 161.769 148.114 161.379 148.114Z" fill="#3E85B9"/>
<path fill-rule="evenodd" clip-rule="evenodd" d="M127.284 109.738C126.634 109.738 125.998 109.949 125.458 110.344C124.917 110.739 124.495 111.301 124.247 111.958C123.998 112.615 123.933 113.338 124.06 114.036C124.186 114.733 124.499 115.375 124.959 115.878C125.419 116.381 126.005 116.723 126.643 116.862C127.281 117 127.942 116.929 128.542 116.657C129.143 116.385 129.657 115.924 130.018 115.332C130.379 114.741 130.572 114.046 130.572 113.334C130.572 112.381 130.226 111.466 129.609 110.791C128.993 110.116 128.156 109.738 127.284 109.738ZM127.284 115.294C126.934 115.294 126.591 115.181 126.3 114.968C126.008 114.756 125.78 114.453 125.645 114.1C125.511 113.745 125.475 113.356 125.542 112.98C125.609 112.604 125.776 112.258 126.023 111.985C126.27 111.713 126.585 111.526 126.928 111.45C127.271 111.373 127.628 111.408 127.952 111.553C128.277 111.697 128.555 111.943 128.752 112.26C128.95 112.577 129.057 112.951 129.06 113.334C129.051 113.843 128.86 114.328 128.528 114.684C128.196 115.041 127.749 115.24 127.284 115.24V115.294Z" fill="#F5AB35"/>
<path fill-rule="evenodd" clip-rule="evenodd" d="M141.93 148.102C140.747 148.102 139.592 148.454 138.609 149.112C137.626 149.771 136.859 150.707 136.407 151.803C135.954 152.898 135.836 154.103 136.067 155.266C136.298 156.429 136.867 157.497 137.703 158.335C138.539 159.174 139.604 159.745 140.764 159.976C141.923 160.207 143.125 160.089 144.218 159.635C145.31 159.181 146.244 158.413 146.9 157.427C147.557 156.441 147.908 155.282 147.908 154.097C147.91 153.309 147.757 152.529 147.457 151.8C147.158 151.072 146.718 150.41 146.162 149.853C145.606 149.296 144.946 148.855 144.22 148.554C143.494 148.253 142.715 148.1 141.93 148.102ZM141.93 157.292C141.296 157.291 140.676 157.102 140.148 156.749C139.621 156.395 139.211 155.893 138.969 155.305C138.727 154.717 138.665 154.07 138.79 153.446C138.915 152.823 139.221 152.251 139.671 151.802C140.121 151.354 140.693 151.049 141.315 150.927C141.938 150.805 142.583 150.871 143.167 151.117C143.753 151.363 144.252 151.777 144.601 152.307C144.951 152.838 145.136 153.461 145.133 154.097C145.129 154.946 144.789 155.758 144.189 156.357C143.589 156.955 142.776 157.292 141.93 157.292Z" fill="#FAC090"/>
</g>
<defs>
<clipPath id="clip0">
<rect width="162" height="217" fill="white" transform="translate(69 42)"/>
</clipPath>
</defs>
</svg>
